HIERARCHY
ROOT Hips
{
	OFFSET -0.001795 -0.223333 0.028219
	CHANNELS 6 Xposition Yposition Zposition Zrotation Yrotation Xrotation 
	JOINT LeftUpLeg
	{
		OFFSET 0.069520 -0.091406 -0.006815
		CHANNELS 3 Zrotation Yrotation Xrotation
		JOINT LeftLeg
		{
			OFFSET 0.034277 -0.375199 -0.004496
			CHANNELS 3 Zrotation Yrotation Xrotation
			JOINT LeftFoot
			{
				OFFSET -0.013596 -0.397961 -0.043693
				CHANNELS 3 Zrotation Yrotation Xrotation
				JOINT LeftToe
				{
					OFFSET 0.026358 -0.055791 0.119288
					CHANNELS 3 Zrotation Yrotation Xrotation
					End Site
					{
						OFFSET 0.000000 0.000000 0.000000
					}
				}
			}
		}
	}
	JOINT RightUpLeg
	{
		OFFSET -0.067670 -0.090522 -0.004320
		CHANNELS 3 Zrotation Yrotation Xrotation
		JOINT RightLeg
		{
			OFFSET -0.038290 -0.382569 -0.008850
			CHANNELS 3 Zrotation Yrotation Xrotation
			JOINT RightFoot
			{
				OFFSET 0.015774 -0.398415 -0.042312
				CHANNELS 3 Zrotation Yrotation Xrotation
				JOINT RightToe
				{
					OFFSET -0.025372 -0.048144 0.123348
					CHANNELS 3 Zrotation Yrotation Xrotation
					End Site
					{
						OFFSET 0.000000 0.000000 0.000000
					}
				}
			}
		}
	}
	JOINT Spine
	{
		OFFSET -0.002533 0.108963 -0.026696
		CHANNELS 3 Zrotation Yrotation Xrotation
		JOINT Spine1
		{
			OFFSET 0.005487 0.135180 0.001092
			CHANNELS 3 Zrotation Yrotation Xrotation
			JOINT Spine2
			{
				OFFSET 0.001457 0.052922 0.025425
				CHANNELS 3 Zrotation Yrotation Xrotation
				JOINT Neck
				{
					OFFSET -0.002778 0.213870 -0.042857
					CHANNELS 3 Zrotation Yrotation Xrotation
					JOINT Head
					{
						OFFSET 0.005152 0.064970 0.051349
						CHANNELS 3 Zrotation Yrotation Xrotation
						End Site
						{
							OFFSET 0.000000 0.000000 0.000000
						}
					}
				}
				JOINT LeftShoulder
				{
					OFFSET 0.078845 0.121749 -0.034090
					CHANNELS 3 Zrotation Yrotation Xrotation
					JOINT LeftArm
					{
						OFFSET 0.090977 0.030469 -0.008868
						CHANNELS 3 Zrotation Yrotation Xrotation
						JOINT LeftForeArm
						{
							OFFSET 0.259612 -0.012772 -0.027456
							CHANNELS 3 Zrotation Yrotation Xrotation
							JOINT LeftHand
							{
								OFFSET 0.249234 0.008986 -0.001171
								CHANNELS 3 Zrotation Yrotation Xrotation
								End Site
								{
									OFFSET 0.000000 0.000000 0.000000
								}
							}
						}
					}
				}
				JOINT RightShoulder
				{
					OFFSET -0.081759 0.118833 -0.038615
					CHANNELS 3 Zrotation Yrotation Xrotation
					JOINT RightArm
					{
						OFFSET -0.096012 0.032551 -0.009143
						CHANNELS 3 Zrotation Yrotation Xrotation
						JOINT RightForeArm
						{
							OFFSET -0.253742 -0.013329 -0.021401
							CHANNELS 3 Zrotation Yrotation Xrotation
							JOINT RightHand
							{
								OFFSET -0.255298 0.007772 -0.005559
								CHANNELS 3 Zrotation Yrotation Xrotation
								End Site
								{
									OFFSET 0.000000 0.000000 0.000000
								}
							}
						}
					}
				}
			}
		}
	}
}
MOTION
Frames: 7
Frame Time: 0.050000
0.000000 0.573254 0.000000 0.547240 -4.791465 42.541785 15.233913 -1.616954 37.112035 -32.368205 -9.558241 -63.343839 46.537591 31.319320 92.215446 0.000000 0.000000 0.000000 -17.591921 4.824895 33.860863 26.142943 11.216338 -67.693590 -82.548313 -37.659134 106.779396 0.000000 0.000000 0.000000 4.091054 -0.033562 -6.425737 0.505794 6.821491 -108.611354 -0.519053 3.669602 103.470086 8.820967 3.247945 -114.449269 0.000000 0.000000 0.000000 -15.188929 22.790872 -13.368728 -53.288450 2.063310 -22.890299 116.186235 62.255957 110.865053 0.000000 0.000000 0.000000 14.448545 -29.360848 -18.506139 46.334907 -17.428939 -23.427549 -66.875488 -61.079502 53.097755 0.000000 0.000000 0.000000 
0.002324 0.569302 -0.000397 0.135727 -5.551213 45.201869 14.641098 -1.348172 33.569694 -32.118243 -8.600620 -62.468835 46.295872 31.038113 93.490228 0.000000 0.000000 0.000000 -17.769548 4.884416 30.044831 25.375490 10.715182 -65.639153 -82.814039 -35.573205 109.639837 0.000000 0.000000 0.000000 4.081076 0.193195 -8.792046 -1.197651 6.431224 -107.285305 0.263463 0.932767 102.372393 4.647484 3.414066 -118.486895 0.000000 0.000000 0.000000 -18.746832 21.397958 -11.832411 -52.904926 -2.952120 -21.755259 127.419382 62.597928 129.317601 0.000000 0.000000 0.000000 10.177539 -28.430015 -17.603912 51.474723 -21.804609 -26.971247 -63.461861 -56.206685 46.794447 0.000000 0.000000 0.000000 
0.003305 0.572633 -0.000149 -1.387688 -6.826896 46.259238 14.752067 -1.030560 33.725294 -32.379579 -8.125501 -63.165804 42.778534 30.496909 92.215897 0.000000 0.000000 0.000000 -19.498818 5.729226 27.689706 27.092318 12.024960 -64.708961 -78.169036 -33.512416 110.947132 0.000000 0.000000 0.000000 4.902264 0.309745 -9.841223 -0.042422 8.604870 -109.680916 -0.658173 2.509442 106.272833 16.504371 5.243555 -123.004978 0.000000 0.000000 0.000000 -17.514493 21.420684 -11.747493 -52.344190 -4.377744 -22.432162 135.163282 64.720434 143.639420 0.000000 0.000000 0.000000 14.389446 -28.738937 -18.575925 47.645865 -19.399684 -25.758317 -64.106383 -55.278406 46.188264 0.000000 0.000000 0.000000 
0.002680 0.569722 0.000577 -0.975913 -6.862812 47.340467 14.335879 -0.923738 33.031905 -33.190462 -8.336848 -62.747836 43.549760 31.531000 89.287507 0.000000 0.000000 0.000000 -19.728270 5.936201 28.638075 27.282916 12.702117 -67.397246 -71.562646 -31.227916 112.872151 0.000000 0.000000 0.000000 5.558802 0.375774 -10.769853 -3.378876 6.693115 -108.279397 0.673622 -0.896302 103.937493 6.997612 4.258684 -121.927597 0.000000 0.000000 0.000000 -18.074103 21.708668 -11.370438 -52.513476 -5.777854 -21.042394 140.674173 67.394394 154.397503 0.000000 0.000000 0.000000 11.867283 -31.735780 -21.798506 48.252157 -23.221620 -25.721820 -69.635311 -48.766590 43.932537 0.000000 0.000000 0.000000 
0.000885 0.570811 0.002024 -0.777203 -5.796482 47.231820 15.003001 -1.388205 33.229546 -32.017377 -8.613515 -64.613639 44.832591 30.965784 92.346013 0.000000 0.000000 0.000000 -18.276804 5.263599 30.276327 26.629076 12.358990 -68.976218 -68.039471 -31.737561 110.640867 0.000000 0.000000 0.000000 5.802940 0.318097 -10.910762 -2.901907 6.211806 -109.107072 -0.420344 -0.001532 106.134629 21.110116 6.707421 -123.851773 0.000000 0.000000 0.000000 -17.519788 21.903048 -11.531289 -51.645312 -6.400570 -21.548422 144.293369 69.358216 161.114489 0.000000 0.000000 0.000000 13.655395 -31.425930 -22.032811 47.062174 -23.794736 -26.229401 -67.023523 -45.104247 39.293776 0.000000 0.000000 0.000000 
-0.001809 0.569304 0.003650 -1.863558 -6.626766 47.649949 14.639994 -1.011398 34.121130 -31.202336 -8.306709 -67.091935 47.472330 31.031560 94.984766 0.000000 0.000000 0.000000 -18.340472 5.497500 29.754221 27.764837 13.099994 -67.577175 -66.569707 -32.934051 107.299520 0.000000 0.000000 0.000000 6.216417 0.337262 -11.027757 -1.872640 7.676642 -109.193950 -0.473001 0.655222 106.386261 29.265420 7.348733 -121.540536 0.000000 0.000000 0.000000 -16.535999 22.131967 -11.878296 -50.109496 -5.831987 -21.240097 142.925720 70.620250 157.199505 0.000000 0.000000 0.000000 13.264545 -32.449221 -22.982524 46.810657 -26.000546 -26.394080 -65.789431 -40.462607 34.712687 0.000000 0.000000 0.000000 
-0.004281 0.569621 0.005195 -1.720652 -5.746115 47.550254 14.853309 -1.269532 34.184942 -30.320339 -8.425411 -68.107005 48.422785 31.292027 94.709852 0.000000 0.000000 0.000000 -16.866142 4.763912 30.831982 26.664288 12.612626 -68.866083 -65.117126 -32.273117 108.019500 0.000000 0.000000 0.000000 6.091478 0.303728 -10.977749 -2.367666 6.779192 -109.854331 -0.910257 -0.264446 106.544305 32.935545 7.881637 -120.748108 0.000000 0.000000 0.000000 -14.931723 22.925847 -12.319631 -48.427176 -3.577747 -21.387371 134.067002 69.482149 142.967947 0.000000 0.000000 0.000000 14.443112 -32.600672 -23.839275 45.738648 -26.565174 -26.066135 -65.962759 -38.655877 32.696373 0.000000 0.000000 0.000000 
